PathFileType	4	(X/Y/Z)	C:\Users\Basilio\Documents\Thesis Gigler\squatting_fais\c3dfiles\058\SLS_front_pre1\markers_experimental.trc
DataRate	CameraRate	NumFrames	NumMarkers	Units	OrigDataRate	OrigDataStartFrame	OrigNumFrames
200.000000	200.000000	4	61	mm	200.000000	752	1204
Frame#	Time	FHD			LBHD			RBHD			C7			T10			CLAV			LSHO			LUUPA			LMUPA			LDUPA			LLEP			LMEP			LUL			LRFIN			RSHO			RUPA1			RMUPA			RDUPA			RLEP			RMEP			RRAD			RUL			RUFIN			LASI			RASI			USACR			LSACR			RSACR			LTHI1			LTHI2			LTHI3			LTHI4			LLFC			LMFC			LTIB1			LTIB2			LTIB3			LTIB4			LLMAL			LMMAL			LHEE			LMT1			LMT2			LMT5			RTHI			RTHI2			RTHI3			RTHI4			RLFC			RMFC			RTIB1			RTIB2			RTIB3			RTIB4			RLMAL			RMMAL			RHEE			RMT1			RMT2			RMT5			LRAD			
		X1	Y1	Z1	X2	Y2	Z2	X3	Y3	Z3	X4	Y4	Z4	X5	Y5	Z5	X6	Y6	Z6	X7	Y7	Z7	X8	Y8	Z8	X9	Y9	Z9	X10	Y10	Z10	X11	Y11	Z11	X12	Y12	Z12	X13	Y13	Z13	X14	Y14	Z14	X15	Y15	Z15	X16	Y16	Z16	X17	Y17	Z17	X18	Y18	Z18	X19	Y19	Z19	X20	Y20	Z20	X21	Y21	Z21	X22	Y22	Z22	X23	Y23	Z23	X24	Y24	Z24	X25	Y25	Z25	X26	Y26	Z26	X27	Y27	Z27	X28	Y28	Z28	X29	Y29	Z29	X30	Y30	Z30	X31	Y31	Z31	X32	Y32	Z32	X33	Y33	Z33	X34	Y34	Z34	X35	Y35	Z35	X36	Y36	Z36	X37	Y37	Z37	X38	Y38	Z38	X39	Y39	Z39	X40	Y40	Z40	X41	Y41	Z41	X42	Y42	Z42	X43	Y43	Z43	X44	Y44	Z44	X45	Y45	Z45	X46	Y46	Z46	X47	Y47	Z47	X48	Y48	Z48	X49	Y49	Z49	X50	Y50	Z50	X51	Y51	Z51	X52	Y52	Z52	X53	Y53	Z53	X54	Y54	Z54	X55	Y55	Z55	X56	Y56	Z56	X57	Y57	Z57	X58	Y58	Z58	X59	Y59	Z59	X60	Y60	Z60	X61	Y61	Z61	

753	3.76	-266.3662719726563	1755.72900390625	-613.5658569335939	-414.4010620117189	1688.216064453125	-690.9841308593751	-252.1330566406251	1766.108520507813	-754.8930664062501	-423.0181579589845	1550.08740234375	-705.2248535156251	-487.8834533691407	1258.653930664063	-704.6123046875001	-268.7050476074219	1489.836669921875	-690.0341796875001	-273.9257812500001	1543.705322265625	-844.2120361328127	-134.1850280761719	1466.543212890625	-966.7900390625002	-105.4470596313477	1502.432006835938	-945.1960449218752	-64.03847503662111	1465.711547851563	-968.0549316406252	13.93702983856202	1466.809814453125	-959.816345214844	18.98219680786133	1409.8408203125	-927.881774902344	283.2283020019532	1504.442626953125	-923.9800415039065	376.8150634765626	1503.729614257813	-842.7090454101565	-291.7090454101563	1545.368530273438	-536.8325805664064	-143.2852935791016	1454.012451171875	-423.8435974121095	-118.3213119506836	1491.882080078125	-445.8381652832032	-73.97061920166017	1461.369140625	-422.0679626464845	-6.005330085754396	1451.69287109375	-426.8294982910157	2.59144926071167	1394.053588867188	-478.012420654297	264.7775878906251	1482.767333984375	-509.9271545410157	264.4522399902344	1494.933227539063	-429.0398254394532	357.6125183105469	1504.40234375	-496.7056274414064	-351.2915954589844	1050.288330078125	-852.4727172851565	-338.7901306152344	1027.739501953125	-617.2921142578126	-525.9111328125001	1135.043823242188	-708.0518798828126	-538.7685546875001	1107.319702148438	-737.4525756835939	-531.1300659179689	1101.368041992188	-680.3905029296876	-291.6875305175782	823.0977172851565	-934.406921386719	-227.3256835937501	769.724548339844	-926.9138183593752	-190.1353759765625	788.3542480468752	-898.5330200195315	-225.0335693359376	709.1879882812501	-921.2496337890627	-172.4735107421875	625.0568237304689	-911.544128417969	-153.7197875976563	622.6277465820314	-784.135437011719	-56.89986801147462	535.8137817382814	-874.6240844726565	-80.41883087158205	480.5250549316407	-934.9687500000002	-43.74324798583985	491.0767517089845	-909.8574218750002	-1.955032110214234	421.1823730468751	-887.5147705078127	45.73577499389649	220.0494689941407	-911.806823730469	60.66867065429689	241.6174468994141	-821.915222167969	10.5246114730835	156.6688842773438	-860.5966796875002	210.7769012451172	253.5575866699219	-843.8765258789065	213.6994018554688	260.5154724121094	-889.8779296875002	180.9695434570313	218.4120330810547	-942.934265136719	-388.5165405273439	814.197204589844	-558.2199096679689	-334.5738220214844	774.5970458984377	-561.9391479492189	-303.6247253417969	783.699157714844	-565.5131225585939	-337.0360412597657	693.6948852539064	-586.4880981445314	-280.2554321289063	532.3649902343751	-617.7763061523439	-255.7610931396485	536.9486694335939	-749.7213134765626	-258.8038024902344	341.8825073242188	-723.5905151367189	-303.9705810546876	264.8299865722657	-660.2003173828126	-272.8452758789063	256.4302673339844	-696.5084838867189	-293.1353759765626	217.6759796142579	-734.5380249023439	-366.7702636718751	116.587646484375	-694.6697387695314	-338.0364685058594	141.0364074707032	-783.2091064453127	-437.1052551269532	102.0124206542969	-757.6859741210939	-227.9369659423829	58.61110687255861	-770.8484497070315	-221.1134643554688	60.39083480834962	-718.5839843750001	-271.0005798339844	29.5573844909668	-666.7578125000001	277.6437072753907	1477.162353515625	-847.1301879882815	
754	3.765	-266.5837402343751	1757.527587890625	-613.7143554687501	-414.8531188964845	1689.378662109375	-690.9932861328126	-252.6195983886719	1767.533447265625	-755.1449584960939	-423.3120422363282	1551.533203125	-705.2087402343751	-487.8116149902345	1259.81787109375	-704.5739746093751	-268.9174499511719	1491.410400390625	-690.0275878906251	-275.4271240234376	1544.5537109375	-844.1738891601565	-134.3786773681641	1467.828247070313	-966.7607421875002	-105.7619781494141	1503.830688476563	-945.2727050781252	-64.36083221435548	1467.145629882813	-968.0316162109377	13.67257976531983	1468.1826171875	-959.7598876953127	18.42205238342286	1411.210205078125	-927.5112915039065	283.0138854980469	1505.706909179688	-923.8352050781252	376.4742736816407	1505.203735351563	-842.5343017578127	-292.0456542968751	1546.889770507813	-536.7885131835939	-143.3900756835938	1455.581176757813	-423.896209716797	-118.6945190429688	1493.689086914063	-446.0200500488282	-74.27163696289064	1462.800048828125	-421.7193603515626	-6.324932098388674	1453.176513671875	-427.1694946289064	2.433081150054932	1395.459106445313	-478.122772216797	264.4294433593751	1484.037719726563	-509.9652404785157	263.9466247558594	1496.648315429688	-429.5675659179689	357.5226135253907	1506.016479492188	-496.2688903808595	-350.6979064941407	1051.656005859375	-852.4571533203127	-338.3699951171876	1028.69580078125	-617.2799682617189	-525.7191772460939	1136.2646484375	-707.7631225585939	-538.3273315429689	1108.510498046875	-737.3671264648439	-530.6351318359376	1102.60595703125	-680.3784179687501	-291.6531982421876	824.3504638671877	-934.4935302734377	-227.6594543457032	770.553161621094	-926.976989746094	-190.461410522461	789.1094360351565	-898.4787597656252	-225.4586639404297	710.2793579101564	-921.3024902343752	-172.7948303222657	625.8406982421876	-911.562194824219	-154.6859436035157	623.0154418945314	-784.2399902343752	-57.77427673339845	536.3774414062501	-874.6444091796877	-80.98943328857423	481.3116760253907	-935.0960693359377	-44.7361183166504	491.5596618652345	-909.813415527344	-3.251074075698853	421.6776428222657	-887.601013183594	44.74081039428712	220.5789947509766	-911.9924926757815	59.54565429687501	241.9663543701172	-822.2634887695315	9.001064300537111	157.1518096923828	-860.701110839844	209.0229187011719	252.9894714355469	-843.7512817382815	212.0857086181641	260.2393188476563	-889.8850708007815	179.8759918212891	218.6202392578126	-943.028991699219	-388.846405029297	815.5586547851565	-558.2831420898439	-335.3114013671876	775.4495849609377	-561.8245849609376	-304.4300231933594	784.4871215820315	-565.3908691406251	-337.5537414550782	694.3984375000001	-586.6719360351564	-281.4234008789063	532.9165649414064	-617.6883544921876	-257.2576293945313	537.5245361328126	-749.6260986328126	-259.9342651367188	342.3092346191407	-723.4782104492189	-304.6992187500001	264.8811645507813	-660.0527343750001	-273.9296875000001	256.6221618652344	-696.4872436523439	-293.9082946777344	217.7967224121094	-734.4284057617189	-366.7993469238282	116.6479568481446	-694.6705322265626	-338.1398315429688	141.049789428711	-783.1966552734377	-437.1129150390626	102.0041275024414	-757.6736450195314	-227.9306335449219	58.60560226440431	-770.8309326171877	-221.1333923339844	60.3151206970215	-718.5535278320314	-271.0027160644532	29.56167793273926	-666.7554321289064	277.3194580078126	1478.66796875	-847.013366699219	
755	3.77	-267.0352172851563	1759.013427734375	-613.7426757812501	-415.101531982422	1690.944213867188	-691.1619262695314	-252.8778533935547	1769.084594726563	-755.1526489257814	-423.6225585937501	1552.97021484375	-705.1898193359376	-487.7131652832032	1261.143310546875	-704.6025390625001	-269.1394958496094	1492.914916992188	-690.0654907226564	-275.6021423339844	1546.028076171875	-844.2111816406252	-134.6761016845703	1469.324096679688	-966.818542480469	-105.9418106079102	1505.218627929688	-945.2414550781252	-64.53673553466798	1468.58349609375	-967.985290527344	13.37418937683106	1469.684448242188	-959.603210449219	18.35844230651856	1412.997924804688	-927.801452636719	282.7326660156251	1507.281982421875	-923.6733398437502	376.1469421386719	1506.720947265625	-842.332946777344	-292.2544555664063	1548.487670898438	-536.8813476562501	-143.789794921875	1456.896118164063	-423.7276306152345	-118.6888504028321	1494.761962890625	-445.828094482422	-74.50518035888673	1464.225708007813	-421.9785766601564	-6.703045368194582	1454.297973632813	-426.7126464843751	2.049458742141724	1396.767456054688	-478.0974121093751	263.9367980957032	1485.188232421875	-510.0773925781251	263.3983459472657	1497.444702148438	-429.0086669921876	356.9019165039063	1506.977905273438	-496.8189697265626	-350.3825378417969	1053.2705078125	-852.6055297851565	-338.0078125000001	1029.941284179688	-617.4214477539064	-525.4681396484376	1137.266235351563	-707.6863403320314	-538.0136718750001	1109.695434570313	-737.1989135742189	-530.2771606445314	1103.80712890625	-680.3054199218751	-291.8984069824219	825.4273071289065	-934.3782348632815	-227.9040222167969	771.5194091796877	-926.993103027344	-190.3276977539063	790.1448364257815	-898.7961425781252	-226.0495300292969	711.2659301757814	-921.321716308594	-173.5082244873047	626.7650146484376	-911.4947509765627	-155.1278533935547	623.3439331054689	-784.2720947265627	-58.50034713745119	536.9610595703126	-874.566589355469	-81.73933410644533	481.9789123535157	-935.1636352539065	-45.11417388916016	492.6148681640626	-910.0791015625002	-3.747605085372926	422.3161621093751	-887.710876464844	43.72679519653321	221.0113372802735	-912.1809692382815	58.67039108276369	242.3311157226563	-822.4058227539065	8.179801940917971	157.53662109375	-861.0126953125002	207.526596069336	252.6272277832032	-843.8845214843752	211.628646850586	260.8107910156251	-890.120788574219	178.6776885986328	218.8278503417969	-943.099548339844	-389.5773315429689	816.604675292969	-558.0677490234376	-336.0936584472657	776.2569580078127	-561.5332641601564	-304.6929016113282	785.0467529296877	-565.5229492187501	-338.6830749511719	695.6734619140626	-586.3930053710939	-283.1739501953126	533.4483032226564	-617.5362548828126	-258.7174072265626	538.1000366210939	-749.4929199218751	-260.4929199218751	343.0684814453126	-723.2972412109376	-305.5481567382813	265.2166748046876	-659.8460083007814	-274.2006835937501	256.7908020019532	-696.2821044921876	-294.1050720214844	217.9688568115235	-734.2879638671876	-366.8966369628907	116.6882629394532	-694.6688232421876	-338.3460388183594	141.1013793945313	-783.218688964844	-437.1255798339845	101.9872436523438	-757.6668090820314	-227.9608764648438	58.61117935180665	-770.8464355468752	-221.1118469238282	60.42608642578126	-718.5332641601564	-270.9757080078126	29.63680648803712	-666.7175292968751	276.9974975585938	1479.98388671875	-846.8195800781252	
756	3.775	-267.3092956542969	1760.743408203125	-613.7215576171876	-415.7137145996095	1692.305541992188	-691.2319946289064	-253.2083129882813	1770.651489257813	-755.1784057617189	-423.8825683593751	1554.398559570313	-705.3088989257814	-487.6085205078126	1262.328491210938	-704.4584960937501	-269.5348205566407	1494.426513671875	-690.0477905273439	-276.1009826660157	1547.572143554688	-844.258972167969	-134.7389373779297	1470.5927734375	-966.8108520507815	-106.1516952514649	1506.6005859375	-945.2535400390627	-64.76451110839845	1469.95458984375	-967.9863281250002	13.329008102417	1471.176025390625	-959.609069824219	18.2335205078125	1414.107788085938	-927.8695068359377	282.3713073730469	1508.532592773438	-923.4048461914065	375.8709716796876	1508.006591796875	-842.1099853515627	-292.4926147460938	1549.810302734375	-536.8916015625001	-144.1322021484375	1458.458618164063	-423.700897216797	-119.0541305541992	1496.48486328125	-445.8730773925782	-74.83238983154298	1465.734252929688	-421.886444091797	-6.838114261627199	1455.7548828125	-426.7076416015626	1.730420708656311	1398.088500976563	-477.891815185547	263.8385620117188	1486.679443359375	-509.9815673828126	263.2507629394532	1498.927856445313	-428.8490600585939	356.9970092773438	1508.573486328125	-496.2811279296876	-349.9162292480469	1054.50830078125	-852.6262207031252	-337.2022705078126	1031.307983398438	-617.6262207031251	-525.1145019531251	1138.767700195313	-707.5706787109376	-537.5313110351564	1111.159423828125	-737.0939331054689	-529.8739624023439	1105.081176757813	-680.2229614257814	-291.8160400390626	826.6717529296877	-934.3574829101565	-228.2324218750001	772.523864746094	-927.1020507812502	-190.5796966552735	791.0281982421877	-898.7742309570315	-226.3488922119141	712.2116699218751	-921.4158325195315	-174.110336303711	627.4390869140626	-911.8505859375002	-155.7400512695313	623.8025512695314	-784.4215087890627	-59.17525482177736	537.4644775390626	-874.536804199219	-82.60310363769533	482.7149047851564	-935.3623046875002	-45.83437728881837	493.1629638671876	-910.2609863281252	-4.808362007141114	422.7110595703126	-887.7062988281252	42.44316101074219	221.4408111572266	-912.3372192382815	57.31408309936525	242.5559997558594	-822.4707031250002	6.778522014617922	158.0887603759766	-861.1522216796877	207.3260803222657	253.6789093017579	-843.8707275390627	210.551742553711	261.0595397949219	-890.101745605469	177.5643157958985	219.1819458007813	-943.1902465820315	-390.140594482422	817.8352661132815	-558.1489868164064	-336.5290832519532	777.2984619140627	-561.6821289062501	-305.1351623535157	785.7574462890627	-565.5169067382814	-339.6097717285157	696.3405151367189	-586.4359130859376	-284.6380310058594	534.0951538085939	-617.5096435546876	-260.1901855468751	538.6252441406251	-749.2459716796876	-260.9648742675782	343.5523376464844	-723.1859130859376	-306.2876281738282	265.4082031250001	-659.7349853515626	-274.9230651855469	257.3206176757813	-696.2108764648439	-294.3940429687501	218.5530548095704	-734.2310180664064	-366.9410400390626	116.7524032592774	-694.7387084960939	-338.4373474121094	141.1841735839844	-783.2008056640627	-437.1480712890626	101.9553375244141	-757.6970825195314	-228.0269622802735	58.58975219726564	-770.8836669921877	-221.1019439697266	60.44774246215822	-718.5801391601564	-270.9501647949219	29.68122291564942	-666.7622070312501	276.8367004394532	1481.228515625	-846.7133789062502	
